<svg width="22" height="22" fill="none" xmlns="http://www.w3.org/2000/svg"><path d="M.669.305a.636.636 0 0 0-.375.39C.268.79.259 3.382.265 8.677l.01 7.841.084.135a.644.644 0 0 0 .241.211c.153.074.207.076 2.308.076H5.06v2.152c0 2.101.002 2.155.076 2.308a.644.644 0 0 0 .211.241l.135.084h15.84l.128-.08a.733.733 0 0 0 .202-.202c.072-.12.073-.186.073-8.041v-7.92l-.08-.129a.729.729 0 0 0-.202-.201c-.117-.071-.196-.074-2.312-.084l-2.191-.01V2.907c0-2.1-.002-2.154-.076-2.307a.644.644 0 0 0-.211-.241l-.135-.084L8.653.268C2.67.263.76.272.669.305m14.768 2.932v1.477l-.175.173-.175.172-4.803.01-4.802.009-.135.084a.644.644 0 0 0-.211.241c-.076.156-.076.177-.076 4.92v4.763l-.173.175-.173.176H1.76V1.76h13.677v1.477m-1.87 3.336c0 .005-1.576 1.584-3.502 3.51l-3.502 3.502V6.563h3.502c1.926 0 3.502.004 3.502.01m6.673 6.829v6.838H6.563v-4.528l4.574-4.574 4.575-4.575h4.528v6.839" fill-rule="evenodd" /></svg>
